<?xml version="1.0" encoding="utf-8"?>
<!-- Generator: Adobe Illustrator 17.0.0, SVG Export Plug-In . SVG Version: 6.00 Build 0)  -->
<!DOCTYPE svg PUBLIC "-//W3C//DTD SVG 1.1//EN" "http://www.w3.org/Graphics/SVG/1.1/DTD/svg11.dtd">
<svg version="1.1" xmlns="http://www.w3.org/2000/svg" xmlns:xlink="http://www.w3.org/1999/xlink" x="0px" y="0px"
	 width="307.261px" height="96.07px" viewBox="0 0 307.261 96.07" enable-background="new 0 0 307.261 96.07" xml:space="preserve">
<g id="_x3C_Guides_x3E__1_">
</g>
<g id="iphone4_-_portrait_-_grid">
	<g id="iphone4_-_portrait_-_basic">
	</g>
</g>
<g id="_x3C_Guides_x3E_">
</g>
<g id="iphone4_-_landscape_-_grid" display="none">
	<g id="iphone4_-_landscape_-_basic" display="inline">
	</g>
</g>
<g id="_x3C_Guides_x3E__2_">
</g>
<g id="iphone5_-_portrait_-_grid">
	<g id="iphone5_-_portrait_-_basic">
	</g>
</g>
<g id="ritmoV-__x3C_768__x28_12_x2F_18_x29_">
</g>
<g id="_x3C_Guides_x3E__3_">
</g>
<g id="iphone5_-_landscape_-_grid">
	<g id="iphone5_-_landscape_-_basic">
	</g>
</g>
<g id="_x3C_Guides_x3E__4_">
</g>
<g id="tablet_-_portrait_-_grid" display="none">
	<g id="tablet_-_portrait_-_basic" display="inline">
	</g>
</g>
<g id="ritmo-V_768__x28_14_x2F_21_x29_" display="none">
</g>
<g id="wire-768">
</g>
<g id="_x3C_Guides_x3E__5_">
</g>
<g id="tablet_-_landscape_-_grid" display="none">
	<g id="tablet_-_landscape_-_basic" display="inline">
	</g>
</g>
<g id="ritmoV-960__x28_14_x2F_21_x29_" display="none">
</g>
<g id="wire_960">
</g>
<g id="_x3C_Guides_x3E__6_">
</g>
<g id="desktop_-_grid" display="none">
	<g id="desktop_-_basic" display="inline">
	</g>
</g>
<g id="ritmoV-1200__x28_16_x2F_24_x29_">
</g>
<g id="Capa_23" display="none">
</g>
<g id="wireframe_2">
	<g>
		<path fill-rule="evenodd" clip-rule="evenodd" fill="#005A98" d="M48.035,96.07c26.457,0,48.035-21.578,48.035-48.035
			C96.07,21.578,74.492,0,48.035,0C21.578,0,0,21.578,0,48.034C0,74.492,21.578,96.07,48.035,96.07z"/>
		<path fill-rule="evenodd" clip-rule="evenodd" fill="#D7DCEA" d="M22.207,15.717l0.246,62.013
			c4.187,3.087,7.565,3.626,11.84,0.708l0.526-62.726L22.207,15.717z"/>
		<radialGradient id="SVGID_1_" cx="55.5431" cy="57.7332" r="29.0553" gradientUnits="userSpaceOnUse">
			<stop  offset="0" style="stop-color:#E9ECF3"/>
			<stop  offset="0.0551" style="stop-color:#E1E5EF"/>
			<stop  offset="0.5038" style="stop-color:#A0B2D2"/>
			<stop  offset="0.8309" style="stop-color:#7892BF"/>
			<stop  offset="1" style="stop-color:#6986B8"/>
		</radialGradient>
		<path fill-rule="evenodd" clip-rule="evenodd" fill="url(#SVGID_1_)" d="M59.134,15.711
			C40.246,26.063,14.455,44.751,19.986,63.902c6.351,21.995,61.69,24.437,56.551-8.065c-1.618-10.239-14.559-16.458-17.86-24.956
			C56.313,24.792,59.483,18.473,59.134,15.711z"/>
		<g>
			<path fill-rule="evenodd" clip-rule="evenodd" fill="#005A98" d="M115.041,54.734v-1.798h5.515V13.141h-5.515v-1.673h28.582
				v1.673h-5.483v39.796h5.483v1.798H115.041L115.041,54.734z M161.37,38.386h11.216l-5.608-15.434L161.37,38.386L161.37,38.386z
				 M161.984,54.734h-11.799v-1.798c1.342-0.165,2.455-0.634,3.339-1.435c0.885-0.789,1.603-1.954,2.144-3.491l13.048-36.543h12.985
				l15.128,41.469h3.289v1.798h-26.699v-1.798h4.412l-4.412-12.357h-12.871l-2.372,7.119c-0.166,0.447-0.291,0.895-0.364,1.33
				c-0.083,0.437-0.125,0.812-0.125,1.133c0,0.956,0.313,1.663,0.926,2.11c0.625,0.446,1.581,0.664,2.882,0.664h0.489V54.734
				L161.984,54.734z M249.008,26.174h-1.895c-1.342-4.043-3.153-7.152-5.421-9.333c-2.278-2.183-4.837-3.274-7.678-3.274
				c-2.831,0-4.755,1.164-5.775,3.482c-1.03,2.327-1.54,8.2-1.54,17.617c0,7.306,0.614,12.139,1.842,14.508
				c1.227,2.359,3.413,3.544,6.544,3.544c3.393,0,6.213-1.091,8.47-3.274c2.259-2.182,3.694-5.217,4.328-9.115h2.04
				c-0.489,5.052-2.372,8.918-5.67,11.589c-3.288,2.67-7.815,4.001-13.558,4.001c-6.774,0-12.382-2.162-16.846-6.486
				c-4.464-4.322-6.691-9.707-6.691-16.162c0-2.847,0.572-5.685,1.707-8.511c1.134-2.837,2.674-5.249,4.599-7.265
				c2.133-2.151,4.672-3.814,7.606-5.01c2.934-1.185,6.024-1.776,9.251-1.776c2.133,0,4.079,0.249,5.837,0.748
				c1.759,0.488,3.683,1.352,5.775,2.567l5.306-3.315h1.77V26.174L249.008,26.174z M268.512,38.386h11.216l-5.608-15.434
				L268.512,38.386L268.512,38.386z M269.127,54.734h-11.8v-1.798c1.342-0.165,2.456-0.634,3.34-1.435
				c0.884-0.789,1.602-1.954,2.143-3.491l13.048-36.543h12.985l15.129,41.469h3.289v1.798h-26.7v-1.798h4.412l-4.412-12.357H267.69
				l-2.372,7.119c-0.167,0.447-0.291,0.895-0.364,1.33c-0.083,0.437-0.126,0.812-0.126,1.133c0,0.956,0.313,1.663,0.927,2.11
				c0.625,0.446,1.582,0.664,2.882,0.664h0.49V54.734z"/>
			<rect x="114.924" y="61.591" fill-rule="evenodd" clip-rule="evenodd" fill="#005A98" width="192.139" height="4.046"/>
			<path fill-rule="evenodd" clip-rule="evenodd" fill="#005A98" d="M115.008,73.903h2.913v11.229h6.948v2.572h-9.861V73.903
				L115.008,73.903z M135.701,76.638l-3.138,6.326h6.243L135.701,76.638L135.701,76.638z M134.514,73.712h2.696l7.2,13.992h-3.236
				l-1.371-2.726h-8.22l-1.335,2.726h-2.768L134.514,73.712L134.514,73.712z M151.676,81.536v3.965h2.831
				c1.062,0,1.79-0.15,2.178-0.446c0.391-0.299,0.587-0.817,0.587-1.557c0-0.673-0.198-1.165-0.594-1.483
				c-0.394-0.32-1.01-0.479-1.842-0.479H151.676L151.676,81.536z M151.676,76.021v3.398h2.611c1.012,0,1.699-0.13,2.057-0.388
				c0.357-0.259,0.539-0.701,0.539-1.333c0-0.621-0.172-1.055-0.516-1.305c-0.346-0.249-1.009-0.372-1.992-0.372H151.676
				L151.676,76.021z M148.866,73.903h6.29c1.421,0,2.513,0.291,3.277,0.87c0.764,0.579,1.145,1.401,1.145,2.461
				c0,0.872-0.222,1.566-0.669,2.082c-0.444,0.516-1.113,0.857-2.01,1.025c1.056,0.176,1.862,0.561,2.419,1.152
				c0.553,0.59,0.832,1.362,0.832,2.314c0,1.319-0.391,2.3-1.17,2.938c-0.782,0.641-1.972,0.96-3.573,0.96h-6.542V73.903
				L148.866,73.903z M171.487,76.07c-1.305,0-2.353,0.433-3.143,1.296c-0.79,0.863-1.184,2.012-1.184,3.445
				c0,1.436,0.394,2.581,1.178,3.439c0.788,0.858,1.839,1.287,3.149,1.287c1.317,0,2.371-0.429,3.159-1.287
				c0.785-0.858,1.178-2.003,1.178-3.439c0-1.433-0.394-2.582-1.185-3.445C173.849,76.503,172.798,76.07,171.487,76.07
				L171.487,76.07z M171.487,73.498c2.179,0,3.943,0.675,5.287,2.027c1.344,1.35,2.016,3.112,2.016,5.286
				c0,2.188-0.672,3.951-2.016,5.29c-1.344,1.34-3.108,2.008-5.287,2.008c-2.172,0-3.931-0.668-5.269-2.008
				c-1.338-1.34-2.007-3.102-2.007-5.29c0-2.179,0.669-3.941,2.007-5.289C167.555,74.173,169.314,73.498,171.487,73.498
				L171.487,73.498z M186.846,76.288v4.138h3.037c1.004,0,1.747-0.183,2.22-0.544c0.474-0.361,0.711-0.925,0.711-1.695
				c0-0.663-0.202-1.149-0.608-1.448c-0.405-0.302-1.062-0.451-1.968-0.451H186.846L186.846,76.288z M183.933,73.903h6.045
				c1.903,0,3.306,0.338,4.216,1.017c0.908,0.675,1.361,1.726,1.361,3.148c0,1.07-0.307,1.945-0.921,2.629
				c-0.612,0.687-1.456,1.095-2.531,1.227c0.553,0.164,1.054,0.441,1.495,0.822c0.441,0.38,0.79,0.834,1.045,1.362
				c0.072,0.139,0.169,0.339,0.296,0.604c0.814,1.673,1.374,2.673,1.682,2.992h-3.677c-0.436-1.03-0.849-1.916-1.246-2.646
				c-0.394-0.728-0.764-1.292-1.103-1.689c-0.267-0.314-0.539-0.534-0.817-0.658c-0.275-0.123-0.701-0.184-1.273-0.184h-1.657v5.178
				h-2.913V73.903L183.933,73.903z M206.684,76.638l-3.137,6.326h6.243L206.684,76.638L206.684,76.638z M205.498,73.712h2.696
				l7.199,13.992h-3.235l-1.37-2.726h-8.221l-1.335,2.726h-2.768L205.498,73.712L205.498,73.712z M216.712,73.903h11.759v2.435
				h-4.423v11.367h-2.912V76.337h-4.423V73.903L216.712,73.903z M239.477,76.07c-1.305,0-2.352,0.433-3.143,1.296
				c-0.79,0.863-1.185,2.012-1.185,3.445c0,1.436,0.395,2.581,1.178,3.439c0.788,0.858,1.839,1.287,3.149,1.287
				c1.317,0,2.371-0.429,3.159-1.287c0.785-0.858,1.178-2.003,1.178-3.439c0-1.433-0.393-2.582-1.184-3.445
				C241.84,76.503,240.789,76.07,239.477,76.07L239.477,76.07z M239.477,73.498c2.179,0,3.944,0.675,5.288,2.027
				c1.344,1.35,2.015,3.112,2.015,5.286c0,2.188-0.671,3.951-2.015,5.29c-1.344,1.34-3.109,2.008-5.288,2.008
				c-2.172,0-3.93-0.668-5.269-2.008c-1.337-1.34-2.007-3.102-2.007-5.29c0-2.179,0.67-3.941,2.007-5.289
				C235.547,74.173,237.305,73.498,239.477,73.498L239.477,73.498z M254.837,76.288v4.138h3.037c1.004,0,1.748-0.183,2.22-0.544
				c0.474-0.361,0.711-0.925,0.711-1.695c0-0.663-0.201-1.149-0.606-1.448c-0.406-0.302-1.063-0.451-1.969-0.451H254.837
				L254.837,76.288z M251.924,73.903h6.045c1.904,0,3.306,0.338,4.215,1.017c0.908,0.675,1.362,1.726,1.362,3.148
				c0,1.07-0.308,1.945-0.921,2.629c-0.613,0.687-1.456,1.095-2.531,1.227c0.553,0.164,1.055,0.441,1.496,0.822
				c0.441,0.38,0.791,0.834,1.045,1.362c0.072,0.139,0.168,0.339,0.297,0.604c0.813,1.673,1.373,2.673,1.68,2.992h-3.676
				c-0.434-1.03-0.85-1.916-1.246-2.646c-0.393-0.728-0.764-1.292-1.104-1.689c-0.266-0.314-0.539-0.534-0.817-0.658
				c-0.275-0.123-0.702-0.184-1.273-0.184h-1.658v5.178h-2.913V73.903L251.924,73.903z M269.071,73.903h2.914v13.801h-2.914V73.903
				L269.071,73.903z M284.425,76.07c-1.305,0-2.354,0.433-3.144,1.296c-0.79,0.863-1.185,2.012-1.185,3.445
				c0,1.436,0.395,2.581,1.178,3.439c0.788,0.858,1.839,1.287,3.151,1.287c1.316,0,2.37-0.429,3.158-1.287
				c0.785-0.858,1.178-2.003,1.178-3.439c0-1.433-0.393-2.582-1.184-3.445C286.787,76.503,285.736,76.07,284.425,76.07
				L284.425,76.07z M284.425,73.498c2.178,0,3.943,0.675,5.286,2.027c1.344,1.35,2.016,3.112,2.016,5.286
				c0,2.188-0.672,3.951-2.016,5.29c-1.344,1.34-3.109,2.008-5.286,2.008c-2.172,0-3.932-0.668-5.269-2.008
				c-1.339-1.34-2.007-3.102-2.007-5.29c0-2.179,0.669-3.941,2.007-5.289C280.493,74.173,282.253,73.498,284.425,73.498
				L284.425,73.498z M305.752,74.064c0,0.479,0.015,0.94,0.045,1.393c0.027,0.449,0.068,0.878,0.121,1.287
				c-0.637-0.332-1.313-0.582-2.03-0.744c-0.717-0.164-1.487-0.246-2.306-0.246c-1.018,0-1.774,0.138-2.265,0.414
				c-0.491,0.273-0.738,0.695-0.738,1.263c0,0.931,1.262,1.641,3.781,2.135c0.029,0.005,0.053,0.011,0.07,0.017
				c1.671,0.332,2.845,0.808,3.52,1.424c0.678,0.617,1.015,1.485,1.015,2.611c0,1.463-0.495,2.576-1.483,3.343
				c-0.989,0.767-2.425,1.148-4.311,1.148c-0.935,0-1.815-0.073-2.637-0.222c-0.82-0.151-1.575-0.373-2.263-0.673
				c-0.024-0.665-0.058-1.231-0.103-1.696c-0.046-0.463-0.11-0.874-0.183-1.23c0.698,0.506,1.48,0.894,2.338,1.16
				c0.859,0.27,1.736,0.406,2.632,0.406c1.063,0,1.88-0.177,2.448-0.53c0.572-0.352,0.855-0.861,0.855-1.519
				c0-0.855-0.89-1.477-2.67-1.868c-0.034-0.005-0.065-0.012-0.089-0.017c-0.027-0.005-0.068-0.012-0.121-0.024
				c-1.883-0.414-3.15-0.829-3.798-1.239c-0.534-0.344-0.929-0.769-1.195-1.27c-0.267-0.502-0.4-1.083-0.4-1.743
				c0-1.337,0.503-2.362,1.509-3.075c1.006-0.714,2.451-1.072,4.337-1.072c0.625,0,1.26,0.046,1.912,0.14
				C304.392,73.736,305.062,73.876,305.752,74.064z"/>
		</g>
	</g>
</g>
<g id="recursos">
</g>
</svg>
